/* XPM */
static char *aabdc9ffd97f432cc0dd4216d509e611XPFKh7ov86bmCoUC[] = {
/* columns rows colors chars-per-pixel */
"42 42 8 1 ",
"  c None",
". c #211F30",
"X c #48475B",
"o c #62677A",
"O c #858D99",
"+ c #AFBBC3",
"@ c #D8E1E4",
"# c white",
/* pixels */
"                                          ",
"                                          ",
"                                          ",
"                                          ",
"                                          ",
"      ..............................      ",
"     .###X++@@@@@+@+++++++++@@@+X###.     ",
"     .#@@XOO+++++++++++++O+++++OX@@#.     ",
"     .#@@........................@@#.     ",
"     ....oooooooooooooooooooooooo....     ",
"     .+O.oOOOOOOOOOOOOOOoOOOOOOOo.O+.     ",
"     .@+.oOOOXOOOOOOOOOOOOOOXOOOo.+@.     ",
"     .@+.oOO.OOOOOOOOOOOOOOOO.OOo.+@.     ",
"     .@+.oOO.......XOOX.......OOo.+@.     ",
"     .++.oOOoX####XoOOoX####XoOOo.+@.     ",
"     .@+.ooOOX####XOOOOX####XOOOo.+@.     ",
"     .++.oOOOX####......####XOOOo.++.     ",
"     .++.oOOOX###.@@++++.###XOOOo.++.     ",
"     .++.oOOOoXXX.++++++.XXXoOOOo.+O.     ",
"     .++.oOOOOOOo.++++++.oOOOOOOo.++.     ",
"     .++.oOOOOOOo.+@++++.oOOOOOOo.++.     ",
"     .O+.oOOOoOOo.++++OO.oOOOoOOo.++.     ",
"     .++.oOOOOOOo.+O++OO.oOOOOOOo.++.     ",
"     .++.oOOOXXXX.++++++.XXXXOOOo.++.     ",
"     .++.oOOX@@++.OOOOOO.++@@XOOo.++.     ",
"     .++.oO.@+XXXX......XXXX+@.Oo.++.     ",
"     .++.oO.+XOOOOooooooOOOOX+.Oo.++.     ",
"     .++.oO.OOO............OOO.Oo.O+.     ",
"     .+O.oOo...oooooooooooo...oOo.++.     ",
"     .++.oOOoooOOXOOOOOOXOOoooOOo.++.     ",
"     .++.oOOOOOOOoXXXXXXoOOOOOOOo.++.     ",
"     .OO.oOOOOOOOOooooooOOOOoOOOo.OO.     ",
"     .XX.oOOoOOOOOOOOOOOOOOOOOOOo.XX.     ",
"     .###........................###.     ",
"     .#@@.+@@@@+++++++++++@+@@@+.@@#.     ",
"     .#@@.O+++++O++++++++++++++O.@@#.     ",
"      ..............................      ",
"                                          ",
"                                          ",
"                                          ",
"                                          ",
"                                          "
};
